<?xml version="1.0" encoding="UTF-8"?><svg id="Ebene_1" xmlns="http://www.w3.org/2000/svg" viewBox="0 0 50 50"><defs><style>.cls-1{fill:#cde4f7;}.cls-1,.cls-2,.cls-3,.cls-4,.cls-5,.cls-6,.cls-7,.cls-8{stroke-width:0px;}.cls-2{fill:#deedfa;}.cls-3{fill:#95c7ec;}.cls-4{fill:#87c1ea;}.cls-5{fill:#b6d7f3;}.cls-6{fill:#8ec5ec;}.cls-7{fill:#c4dff5;}.cls-8{fill:#a0cdef;}</style></defs><path class="cls-5" d="M31.7,25.5c-3.87-8.1-5.82-8.39-7.98-9.29-2.16-.9-2.8-2.43-2.8-2.43l-4.22-8.71-1.74,1.08.21.62-.33-.56-1.96.62,3.87,8.87s.75,1.48.02,3.7c-.73,2.23-1.78,3.9,1.86,12.11l6.79,14.46s1.29,4.03,7.83,1.02c0,0,.13-.06.34-.17.22-.09.35-.15.35-.15,6.53-3.01,4.32-6.61,4.32-6.61l-6.56-14.57Z"/><path class="cls-4" d="M34.38,32.18c-.63-1.23-1.3-2.45-1.95-3.67-.5-.94-.87-2.84-1.34-3.82-.53-.32-1.16.43-1.9.66-1.61.5-2.92,2-4.3,2.92-.95.63-1.98,1.12-3.08,1.45-.99.29-2.03.23-3.01.52-.11-.15-.32.14-.42.25,2.56,5.17,5.45,9.84,7.56,15.23.23.59,2.25,1.17,2.8,1.28,1,.21,2.01.12,2.98-.13,1.47-.37,2.83-1.14,3.93-2.19.65-.62,2.46-2.44,2.47-3.4,0-.05,0-.1,0-.15-1.5-2.83-2.52-5.87-3.7-8.88,0-.02-.02-.04-.03-.07Z"/><path class="cls-6" d="M17.53,6.79l-.83-1.71-1.74,1.08.21.62-.33-.56-1.96.62.74,1.69c1.37.13,2.52-.3,3.9-1.74Z"/><path class="cls-8" d="M11.39,4.03s-.19,1.42,1.24,3.14c0,0,.43.78,2.48.05,0,0,2.54-1.17,1.91-2.7,0,0-.71-2.76-1.52-2.38l-4.1,1.89Z"/><path class="cls-1" d="M15.89,2.24c.24.51-.57,1.38-1.8,1.95-1.23.57-2.42.61-2.65.1-.24-.51.57-1.38,1.8-1.95,1.23-.57,2.42-.61,2.65-.1Z"/><path class="cls-3" d="M31.18,24.66c.12.34-.49.72-.73.91-2.19,1.72-4.88,2.84-7.45,3.86-.42.17-4.35,1.98-4.73,1.16-.33-.73,2.98-2.32,3.37-2.54,1.46-.8,2.98-1.52,4.5-2.19.71-.31,4.22-2.13,4.96-1.31.03.04.05.07.07.11Z"/><path class="cls-7" d="M19.93,13.23s0-.02,0-.02c0-.02,0-.04,0-.06,0,0,0,0,0,0,0-.02,0-.05,0-.07,0,0,0,0,0,0,0-.02-.01-.05-.03-.07,0,0,0-.01,0-.02-.01-.02-.02-.04-.04-.06-.02-.02-.04-.05-.07-.07-.25-.2-.42-.66-.57-.95-.25-.48-.51-.97-.76-1.45-.35-.67-.63-1.67-1.17-2.2-.06-.06-.18-.06-.24-.01-.04.03-.08.05-.13.07-.11.05-.05.18.03.22h0c.03.06.1.08.17.08-.04,0,.36.93.41,1.03.26.59.48,1.18.66,1.79.18.6.54,1.61,1.01,2.05.1.11.23.15.34.12,0,0,0,0,0,0,0,0,.01,0,.02,0,.14-.03.26-.13.33-.25,0,0,0,0,0,0,0-.02.02-.04.02-.05,0-.01,0-.03.01-.04Z"/><path class="cls-4" d="M12.88,6.4c-.09-.18-.18-.37-.26-.55-.14-.32-.15-.65-.27-.96-.01-.03-.05-.04-.08-.03-.04.02-.05.03-.08.07-.02.02,0,.07.03.07.12-.01.06.06.08.2.04.2.05.39.13.58.12.29.25.57.39.85.08.14.41.94.64.87.05-.01.07-.07.02-.11-.28-.24-.45-.67-.61-.99Z"/><path class="cls-4" d="M13.93,7.5s.1-.02.14-.04c-.14-.16-.16-.33-.27-.5-.2-.3-.32-.59-.44-.93-.14-.41-.14-.89-.42-1.24-.05-.06-.14.01-.09.08.21.27.22.6.3.92.06.23.15.46.22.69.05.15.15.3.24.44.13.19.18.41.32.58Z"/><path class="cls-4" d="M13.59,5.16c.13.29.31.57.44.86.19.42.41.83.59,1.26.04-.02.09-.04.13-.06-.35-.88-.83-1.72-1.26-2.56-.01-.03-.04-.04-.06-.03-.05,0-.1,0-.15,0-.03,0-.04.05-.01.06.2.07.23.29.32.47Z"/><path class="cls-4" d="M14.3,4.39c-.04-.08-.15-.02-.11.05.36.79.76,1.56,1.13,2.35.04.08.16.02.12-.06-.36-.79-.76-1.56-1.13-2.34Z"/><path class="cls-4" d="M15.37,5.21c.21.4.4.8.61,1.2.04-.03.07-.07.1-.1-.28-.53-.55-1.06-.83-1.59-.12-.23-.24-.59-.55-.57-.05,0-.05.08,0,.09.3.07.53.72.66.97Z"/><path class="cls-4" d="M15.27,3.74c-.07.13.52.94.6,1.09.13.22.23.45.33.68.07.15.16.29.23.43.03-.03.06-.07.1-.1-.03-.05-.05-.09-.08-.14-.15-.24-.26-.53-.38-.8-.2-.44-.49-.9-.75-1.3-.02-.03-.06-.03-.09,0-.05.04-.05.04-.07.11-.02.07.07.11.11.04Z"/><path class="cls-4" d="M16.87,5.49s.07-.07.11-.11c-.33-.77-.63-1.56-1.18-2.2-.05-.06-.14.01-.09.08.52.68.82,1.45,1.16,2.23Z"/><path class="cls-2" d="M15,2.12s0,0-.01,0c-.51-.05-.96.15-1.38.42-.3.19-.69.43-.6.85.24,1.07,1.56.31,2.06-.07.22-.17.56-.4.54-.73-.02-.38-.3-.51-.61-.48Z"/><path class="cls-7" d="M17.7,18.82s-.13.03-.12.09c.13.45-.28,1.05-.47,1.51-.19.45-.39.89-.53,1.35-.27.85-.09,1.57.06,2.36.18.96.43,1.89.77,2.8.29.77.28,1.68.89,2.3.06.06.18-.03.13-.1-.05-.06-.1-.12-.15-.18.04-.02.06-.06.06-.11-.05-.38-.3-.72-.39-1.11-.11-.48-.13-.97-.2-1.46-.13-.92-.58-1.73-.73-2.64-.15-.9-.05-1.93.24-2.8.12-.35.38-.64.49-1,.1-.29.05-.64.05-.94,0-.07-.06-.09-.11-.07ZM17.24,25.39c.09.28.17.55.22.84-.08-.28-.15-.56-.22-.84ZM16.7,22.95c-.03-.27-.03-.55.03-.86.01-.06.03-.13.05-.19-.05.35-.08.7-.07,1.05Z"/><path class="cls-7" d="M28.3,20.65c-.46-.83-1.09-1.58-1.84-2.16-.64-.5-1.6-.69-2.35-.97-.7-.26-1.3-.71-1.81-1.25-.28-.3-.45-.69-.75-.97-.43-.41-.43.04-.37.38.07.37.36.7.64.95.33.3.7.53,1.06.79.83.62,1.81.94,2.71,1.43,1.04.58,1.74,1.89,2.23,2.92.25.54.56,1.25.99,1.66.26.24.75,0,.68-.36-.17-.84-.78-1.67-1.2-2.42Z"/></svg>